:SAMPLES-PER-SECOND 30
:FULLY-SPECIFIED
:DEGREES
62
root  -20.8749 38.8746 0.0598437 41.8868 80.1169 47.2316
RightUpLeg  7.71599 -3.54962 -12.6258
RightLeg  49.722 0.503165 0.326527
RightFoot  10.3134 -1.75518 9.5301
RightToes  -2.9104e-010 0 -3.6325e-017
Spine  8.10803 3.43541 -0.0875677
Spine1  8.64642 6.27737 -9.62447
HEad  -3.19211 5.75514 -3.99412
LeftShoulder1  8.04749 -11.997 -45.2467
LeftArm  -7.4002 28.1509 -23.9908
LeftForeArm  28.4877 -5.83602 -5.39882
LeftHand  -0.244104 0.0205437 5.32207
RightShoulder  5.35336 9.34647 35.6858
RightArm  -3.0358 -2.06725 46.0026
RightForeArm  26.8531 5.14728 7.49502
RightHand  -0.123026 -3.26501 -5.76269
LeftUpLeg  -16.723 14.6445 -12.3809
LeftLeg  21.1478 9.04995 4.17147
LeftFoot  -2.00628 -0.527529 6.61176
LeftToes  1.09107e-011 -5.80176e-011 5.60941e-012
63
root  -19.4814 38.9748 0.0360138 45.1052 79.5185 50.7204
RightUpLeg  0.474159 -1.32887 -12.4834
RightLeg  58.9922 -0.232891 -0.887091
RightFoot  15.1064 -1.31821 5.96926
RightToes  -2.9104e-010 0 -3.6325e-017
Spine  9.43872 3.08003 -1.64946
Spine1  8.68205 5.61117 -9.47377
HEad  -5.58153 5.95504 -5.00039
LeftShoulder1  8.26976 -12.2655 -45.7223
LeftArm  -7.19045 25 -24.0019
LeftForeArm  28.6495 -6.62032 -5.71107
LeftHand  -0.244104 0.0205437 5.32207
RightShoulder  5.38404 9.48775 35.4728
RightArm  -2.89537 -2.72289 46.0551
RightForeArm  30.3891 4.13479 7.2205
RightHand  -0.0242822 -5.19331 -2.79157
LeftUpLeg  -14.2391 15.1587 -13.0098
LeftLeg  21.6919 8.66859 4.12249
LeftFoot  -4.88153 -0.321105 6.20583
LeftToes  1.09107e-011 -5.80176e-011 5.60941e-012
64
root  -18.0391 39.2755 -0.00782512 46.434 80.2177 52.4774
RightUpLeg  -5.4527 -0.496079 -11.3883
RightLeg  63.8495 -0.833201 -2.43086
RightFoot  13.0548 -0.744434 3.86009
RightToes  -2.9104e-010 0 -3.6325e-017
Spine  10.732 2.27139 -1.73423
Spine1  8.62431 4.58795 -8.76804
HEad  -7.66934 6.22805 -5.84959
LeftShoulder1  8.52546 -12.534 -46.3685
LeftArm  -6.37406 20.7216 -23.78
LeftForeArm  29.9181 -7.28099 -6.23345
LeftHand  -0.244104 0.0205437 5.32207
RightShoulder  5.45722 9.61264 35.6331
RightArm  -1.79717 -3.72365 45.0083
RightForeArm  30.444 5.25327 7.54617
RightHand  -0.0358392 -5.03912 -2.88992
LeftUpLeg  -10.5246 15.2549 -12.2175
LeftLeg  20.4286 7.93755 3.52184
LeftFoot  -6.56239 -0.184497 5.35399
LeftToes  1.09107e-011 -5.80176e-011 5.60941e-012
65
root  -16.6321 39.5681 -0.0530465 49.1749 81.8396 55.5385
RightUpLeg  -10.4045 -0.732139 -9.83008
RightLeg  64.397 -1.57871 -4.18576
RightFoot  9.02892 -0.549961 3.41392
RightToes  -2.9104e-010 0 -3.6325e-017
Spine  11.9172 1.26733 -1.20154
Spine1  8.48295 3.30953 -7.8004
HEad  -9.09961 6.49162 -6.25945
LeftShoulder1  8.7374 -12.8183 -46.7042
LeftArm  -5.47166 15.7478 -23.8567
LeftForeArm  31.9639 -7.64557 -6.72678
LeftHand  -0.244104 0.0205437 5.32207
RightShoulder  5.48674 9.65554 35.72
RightArm  -0.357653 -5.26568 43.6001
RightForeArm  26.9844 7.76449 7.94332
RightHand  -0.103613 -3.46957 -5.21621
LeftUpLeg  -6.71314 14.2805 -10.6107
LeftLeg  18.9226 7.77714 2.76709
LeftFoot  -8.05103 -0.0754837 4.32563
LeftToes  1.09107e-011 -5.80176e-011 5.60941e-012
66
root  -15.2308 39.7587 -0.0779602 55.8197 83.4466 62.3169
RightUpLeg  -14.6835 -1.37262 -8.49413
RightLeg  61.4364 -2.40167 -5.30416
RightFoot  6.58213 -0.380576 2.69048
RightToes  -2.9104e-010 0 -3.6325e-017
Spine  12.6723 0.434512 -1.15469
Spine1  8.50871 2.02599 -6.54705
HEad  -9.90102 6.76412 -6.27702
LeftShoulder1  8.82363 -13.0344 -46.5449
LeftArm  -5.00033 10.5501 -24.5278
LeftForeArm  33.5357 -8.11879 -7.00464
LeftHand  -0.244104 0.0205437 5.32207
RightShoulder  5.41325 9.59679 35.353
RightArm  2.35165 -7.10439 42.4593
RightForeArm  20.551 11.1412 7.85305
RightHand  -0.238285 -1.80118 -7.53849
LeftUpLeg  -3.2788 12.3054 -9.13633
LeftLeg  17.6893 8.34539 1.87619
LeftFoot  -9.58031 -0.00260742 3.96992
LeftToes  1.09107e-011 -5.80176e-011 5.60941e-012
67
root  -13.7832 39.9207 -0.0974033 64.9102 84.6172 71.4819
RightUpLeg  -17.9289 -1.99549 -7.43477
RightLeg  55.2268 -3.17306 -5.33702
RightFoot  4.9103 -0.164034 1.38845
RightToes  -2.9104e-010 0 -3.6325e-017
Spine  13.0848 -0.139477 -1.38618
Spine1  8.58886 0.959493 -5.02987
HEad  -10.1959 6.99624 -6.00942
LeftShoulder1  8.82041 -13.1297 -46.2533
LeftArm  -4.72197 5.51506 -25.35
LeftForeArm  33.377 -9.33939 -7.03609
LeftHand  -0.244104 0.0205437 5.32207
RightShoulder  5.29506 9.49024 34.7923
RightArm  6.00907 -8.86672 41.4408
RightForeArm  13.2339 14.6419 7.14968
RightHand  -0.374797 -0.609866 -9.10197
LeftUpLeg  0.21146 9.7241 -7.95162
LeftLeg  16.0281 9.51415 0.78817
LeftFoot  -10.781 0.0453004 3.94482
LeftToes  1.09107e-011 -5.80176e-011 5.60941e-012
68
root  -12.3054 39.9393 -0.0996136 74.2496 85.1408 80.9218
RightUpLeg  -19.8076 -2.66738 -6.88234
RightLeg  46.1006 -3.73328 -4.46644
RightFoot  2.69153 -0.193734 1.75177
RightToes  -2.9104e-010 0 -3.6325e-017
Spine  13.4764 -0.434536 -1.95574
Spine1  8.4943 0.178341 -3.74633
HEad  -10.1864 7.03848 -5.55026
LeftShoulder1  8.81782 -13.1693 -46.1266
LeftArm  -3.83914 0.845217 -25.8987
LeftForeArm  31.3059 -11.5742 -6.76195
LeftHand  -0.244104 0.0205437 5.32207
RightShoulder  5.19521 9.37012 34.4025
RightArm  8.73413 -10.2489 40.3192
RightForeArm  7.95672 17.3267 6.28284
RightHand  -0.485463 0.192641 -10.1638
LeftUpLeg  3.26675 7.91503 -7.25665
LeftLeg  15.1843 10.2884 0.00847554
LeftFoot  -12.3535 0.105014 3.56489
LeftToes  1.09107e-011 -5.80176e-011 5.60941e-012
69
root  -10.7533 39.7522 -0.0644652 84.1753 85.0494 90.8744
RightUpLeg  -20.4754 -4.37057 -6.70933
RightLeg  34.8515 -4.06577 -3.31404
RightFoot  1.16606 -0.344816 3.20051
RightToes  -2.9104e-010 0 -3.6325e-017
Spine  13.558 -0.60324 -3.09167
Spine1  8.38731 -0.463944 -2.718
HEad  -10.2175 6.90855 -5.06406
LeftShoulder1  8.81735 -13.2163 -45.9903
LeftArm  -1.94034 -3.37932 -26.3218
LeftForeArm  28.0911 -14.6129 -6.0382
LeftHand  -0.244104 0.0205437 5.32207
RightShoulder  5.11052 9.24548 34.1356
RightArm  9.33786 -11.0319 39.3375
RightForeArm  5.95725 18.5872 5.79806
RightHand  -0.544402 0.524498 -10.7751
LeftUpLeg  5.6905 7.35732 -7.03386
LeftLeg  15.7801 10.1456 -0.258035
LeftFoot  -14.5977 0.184014 3.34181
LeftToes  1.09107e-011 -5.80176e-011 5.60941e-012
70
root  -9.12137 39.5644 -0.0193135 95.1716 84.7773 101.62
RightUpLeg  -20.3761 -8.16374 -6.03163
RightLeg  22.0833 -3.57809 -1.75143
RightFoot  1.14818 -0.378301 3.52334
RightToes  -2.9104e-010 0 -3.6325e-017
Spine  12.9174 -0.870503 -4.10307
Spine1  8.73956 -1.15558 -1.38504
HEad  -10.4416 6.78425 -4.71305
LeftShoulder1  8.7866 -13.263 -45.6928
LeftArm  0.494423 -7.08598 -26.7552
LeftForeArm  24.7974 -18.062 -4.92778
LeftHand  -0.244104 0.0205437 5.32207
RightShoulder  5.03189 9.13479 33.8672
RightArm  8.06564 -11.2569 38.7293
RightForeArm  6.28312 18.364 5.81257
RightHand  -0.537575 0.322019 -10.996
LeftUpLeg  8.28974 7.11815 -6.83972
LeftLeg  15.6201 9.54906 -0.511205
LeftFoot  -16.3635 0.25469 3.56158
LeftToes  1.09107e-011 -5.80176e-011 5.60941e-012
71
root  -7.43503 39.4051 0.0248697 104.9 84.3721 110.91
RightUpLeg  -19.6483 -11.1953 -5.81177
RightLeg  8.95286 -3.39947 1.11036
RightFoot  1.06677 -0.400438 3.75714
RightToes  -2.9104e-010 0 -3.6325e-017
Spine  11.8123 -1.15107 -4.71617
Spine1  9.43506 -1.80019 0.000357045
HEad  -10.6312 6.64566 -4.55995
LeftShoulder1  8.77571 -13.3197 -45.4749
LeftArm  2.03049 -10.2105 -26.9658
LeftForeArm  22.9303 -21.4826 -3.99013
LeftHand  -0.244104 0.0205437 5.32207
RightShoulder  4.97365 9.03994 33.7054
RightArm  5.19639 -11.3046 38.3525
RightForeArm  7.98041 16.9627 6.17117
RightHand  -0.514492 -0.00172635 -11.1285
LeftUpLeg  11.1364 6.96412 -6.51557
LeftLeg  14.5987 8.62073 -0.897662
LeftFoot  -17.6855 0.270685 3.00206
LeftToes  1.09107e-011 -5.80176e-011 5.60941e-012
72
root  -5.63733 39.1088 0.0947527 109.238 83.7803 115.047
RightUpLeg  -18.4164 -8.73289 -7.7818
RightLeg  -1.27603 -7.02263 4.528
RightFoot  -0.441816 -0.517626 5.42583
RightToes  -2.9104e-010 0 -3.6325e-017
Spine  10.8515 -1.24647 -5.25215
Spine1  9.82913 -2.11327 0.773607
HEad  -10.6262 6.3547 -4.62032
LeftShoulder1  8.82632 -13.4114 -45.49
LeftArm  1.26149 -12.6674 -26.9321
LeftForeArm  23.7679 -24.5513 -3.93877
LeftHand  -0.244104 0.0205437 5.32207
RightShoulder  4.94294 8.96638 33.693
RightArm  0.850835 -11.4912 38.0911
RightForeArm  10.7254 14.8315 6.56546
RightHand  -0.508874 -0.102333 -11.2081
LeftUpLeg  13.9731 7.52338 -6.01183
LeftLeg  14.6482 7.13647 -1.15029
LeftFoot  -19.26 0.203903 1.28129
LeftToes  1.09107e-011 -5.80176e-011 5.60941e-012
